<?xml version="1.0" encoding="UTF-8" standalone="no"?>
<!-- Uploaded to: SVG Repo, www.svgrepo.com, Generator: SVG Repo Mixer Tools -->

<svg
   height="70px"
   width="50px"
   version="1.1"
   id="Layer_1"
   viewBox="0 0 503.467 503.467"
   xml:space="preserve"
   sodipodi:docname="table-furniture-svgrepo-com.svg"
   inkscape:version="1.3 (0e150ed6c4, 2023-07-21)"
   xmlns:inkscape="http://www.inkscape.org/namespaces/inkscape"
   xmlns:sodipodi="http://sodipodi.sourceforge.net/DTD/sodipodi-0.dtd"
   xmlns="http://www.w3.org/2000/svg"
   xmlns:svg="http://www.w3.org/2000/svg"><defs
   id="defs6" /><sodipodi:namedview
   id="namedview6"
   pagecolor="#ffffff"
   bordercolor="#000000"
   borderopacity="0.25"
   inkscape:showpageshadow="2"
   inkscape:pageopacity="0.0"
   inkscape:pagecheckerboard="0"
   inkscape:deskcolor="#d1d1d1"
   showguides="true"
   inkscape:zoom="1.3417351"
   inkscape:cx="430.41282"
   inkscape:cy="490.78241"
   inkscape:window-width="1920"
   inkscape:window-height="1046"
   inkscape:window-x="-11"
   inkscape:window-y="-11"
   inkscape:window-maximized="1"
   inkscape:current-layer="Layer_1"><sodipodi:guide
     position="363.007,84.657412"
     orientation="0,-1"
     id="guide6"
     inkscape:locked="false" /></sodipodi:namedview>&#10;<g
   transform="translate(7.6332938,-48.689632)"
   id="g5">&#10;	<path
   style="fill:#ae938d"
   d="m 157.53033,313.30668 h 187.733 v -34.133 h -187.733 z"
   id="path1"
   sodipodi:nodetypes="ccccc" />&#10;	&#10;	<path
   style="fill:#f2edda"
   d="m 344.6,275.65529 0,6.17171 H 156.867 l 0,-6.17171 v -34.133 -85.334 c 0,-18.773 17.067,-34.133 34.133,-42.667 0,0 17.067,-8.533 59.733,-8.533 42.666,0 59.733,8.533 59.733,8.533 17.067,8.533 34.133,23.893 34.133,42.667 v 17.067 68.267 34.133 z"
   id="path3"
   sodipodi:nodetypes="cccccscscscccc" />&#10;	<path
   style="fill:#ffd0a1"
   d="m 292.46191,245.54524 c 5.12,0 8.533,-3.413 8.533,-8.533 0,-5.12 -3.413,-8.533 -8.533,-8.533 -5.12,0 -8.533,3.413 -8.533,8.533 0,5.12 3.413,8.533 8.533,8.533 z m -85.333,0 c 5.12,0 8.533,-3.413 8.533,-8.533 0,-5.12 -3.413,-8.533 -8.533,-8.533 -5.12,0 -8.533,3.413 -8.533,8.533 -0.001,5.12 3.413,8.533 8.533,8.533 z m 85.333,-68.266 c 5.12,0 8.533,-3.413 8.533,-8.533 0,-5.12 -3.413,-8.533 -8.533,-8.533 -5.12,0 -8.533,3.413 -8.533,8.533 0,5.12 3.413,8.533 8.533,8.533 z m -85.333,0 c 5.12,0 8.533,-3.413 8.533,-8.533 0,-5.12 -3.413,-8.533 -8.533,-8.533 -5.12,0 -8.533,3.413 -8.533,8.533 0,5.12 3.413,8.533 8.533,8.533 z"
   id="path4" />&#10;	&#10;</g>&#10;<path
   style="fill:#51565f"
   d="m 352.23329,501.71828 c -2.56,0 -4.267,-1.707 -4.267,-4.267 l 0,-225.91491 h -179.2 l 0,225.832 c 0,2.56 -1.707,4.267 -4.267,4.267 -2.56,0 -4.267,-1.707 -4.267,-4.267 l 0,-389.40067 c 0,-17.919996 13.653,-34.986996 36.693,-46.079996 0.853,0 18.773,-9.387 61.44,-9.387 43.52,0 60.587,8.533 61.44,9.387 23.04,11.093 36.693,29.013 36.693,46.079996 l 0,389.48458 c 0.002,2.56 -1.705,4.266 -4.265,4.266 z m -183.467,-238.71491 h 179.2 v -25.6 h -179.2 z m 0,-34.133 h 179.2 V 107.9677 c 0,-17.066996 -16.213,-31.572996 -31.573,-39.252996 0,0 -17.067,-7.68 -58.027,-7.68 -40.96,0 -58.027,7.68 -58.027,7.68 -15.36,7.68 -31.573,22.187 -31.573,39.252996 z m 132.267,-30.09298 c -6.827,0 -12.8,-5.973 -12.8,-12.8 0,-6.827 5.973,-12.8 12.8,-12.8 6.827,0 12.8,5.973 12.8,12.8 0,6.827 -5.973,12.8 -12.8,12.8 z m 0,-17.067 c -2.56,0 -4.267,1.707 -4.267,4.267 0,2.56 1.707,4.267 4.267,4.267 2.56,0 4.267,-1.707 4.267,-4.267 0,-2.56 -1.707,-4.267 -4.267,-4.267 z m -85.333,17.067 c -6.827,0 -12.8,-5.973 -12.8,-12.8 0,-6.827 5.973,-12.8 12.8,-12.8 6.827,0 12.8,5.973 12.8,12.8 0,6.827 -5.974,12.8 -12.8,12.8 z m 0,-17.067 c -2.56,0 -4.267,1.707 -4.267,4.267 0,2.56 1.707,4.267 4.267,4.267 2.56,0 4.267,-1.707 4.267,-4.267 -0.001,-2.56 -1.707,-4.267 -4.267,-4.267 z m 85.333,-51.2 c -6.827,0 -12.8,-5.973 -12.8,-12.80001 0,-6.827 5.973,-12.8 12.8,-12.8 6.827,0 12.8,5.973 12.8,12.8 0,6.82701 -5.973,12.80001 -12.8,12.80001 z m 0,-17.06601 c -2.56,0 -4.267,1.707 -4.267,4.267 0,2.56 1.707,4.26701 4.267,4.26701 2.56,0 4.267,-1.70701 4.267,-4.26701 0,-2.56 -1.707,-4.267 -4.267,-4.267 z m -85.333,17.06601 c -6.827,0 -12.8,-5.973 -12.8,-12.80001 0,-6.827 5.973,-12.8 12.8,-12.8 6.827,0 12.8,5.973 12.8,12.8 0,6.82701 -5.974,12.80001 -12.8,12.80001 z m 0,-17.06601 c -2.56,0 -4.267,1.707 -4.267,4.267 0,2.56 1.707,4.26701 4.267,4.26701 2.56,0 4.267,-1.70701 4.267,-4.26701 0,-2.56 -1.707,-4.267 -4.267,-4.267 z"
   id="path6"
   inkscape:label="path6"
   sodipodi:nodetypes="ssccsssscscscscccccsccscscsssssssssssssssscssscssssssssssssssssssss" />&#10;</svg>
